<?xml version="1.0" encoding="iso-8859-1"?>
<!-- Generator: Adobe Illustrator 19.0.0, SVG Export Plug-In . SVG Version: 6.00 Build 0)  -->
<svg version="1.1" id="Capa_1" xmlns="http://www.w3.org/2000/svg" xmlns:xlink="http://www.w3.org/1999/xlink" x="0px" y="0px"
	 viewBox="0 0 512 512" style="enable-background:new 0 0 512 512;" xml:space="preserve">
<g>
	<g>
		<path d="M151.129,388.83L207,332.959c4.404-4.403,6.829-10.258,6.829-16.485s-2.425-12.081-6.828-16.485
			c-9.09-9.088-23.88-9.087-32.97,0l-55.872,55.872l-55.872-55.872c-9.091-9.09-23.88-9.088-32.97,0.001
			c-4.403,4.403-6.828,10.258-6.828,16.484c0,6.228,2.425,12.082,6.828,16.485l55.872,55.871l-55.872,55.872
			c-4.403,4.403-6.828,10.258-6.828,16.484c0,6.228,2.425,12.082,6.828,16.484c4.403,4.404,10.258,6.829,16.485,6.829
			s12.082-2.425,16.485-6.828l55.872-55.872l55.872,55.872c4.403,4.403,10.258,6.828,16.485,6.828
			c6.228,0,12.082-2.425,16.485-6.828c4.403-4.403,6.828-10.258,6.828-16.485s-2.425-12.081-6.828-16.484L151.129,388.83z
			 M196.394,467.066c-1.57,1.569-3.657,2.435-5.878,2.435c-2.22,0-4.308-0.865-5.878-2.436l-61.175-61.175
			c-1.464-1.464-3.384-2.196-5.303-2.196s-3.839,0.732-5.303,2.196l-61.175,61.176c-1.57,1.569-3.657,2.435-5.878,2.435
			c-2.221,0-4.308-0.865-5.878-2.436c-1.57-1.569-2.435-3.657-2.435-5.878c0-2.22,0.864-4.308,2.435-5.877l61.175-61.176
			c2.929-2.93,2.929-7.678,0-10.607l-61.175-61.175c-1.57-1.569-2.435-3.657-2.435-5.878c0-2.221,0.865-4.309,2.435-5.878
			c3.241-3.242,8.516-3.242,11.757,0l61.175,61.175c2.929,2.928,7.678,2.928,10.606,0l61.174-61.175
			c3.242-3.24,8.516-3.241,11.757,0.001c1.57,1.569,2.435,3.657,2.435,5.877c-0.001,2.22-0.866,4.308-2.436,5.878l-61.175,61.175
			c-2.929,2.93-2.929,7.678,0,10.607l61.175,61.176c1.57,1.569,2.435,3.657,2.435,5.877
			C198.829,463.408,197.965,465.496,196.394,467.066z"/>
	</g>
</g>
<g>
	<g>
		<path d="M411.463,294.787c-4.071-0.759-7.989,1.927-8.747,5.999c-0.759,4.072,1.927,7.988,5.999,8.747
			c38.125,7.104,65.796,40.453,65.796,79.297c0,44.482-36.188,80.672-80.671,80.672c-44.483,0-80.672-36.189-80.672-80.672
			c0-38.083,27.025-71.307,64.261-78.999c4.057-0.838,6.665-4.806,5.827-8.862c-0.839-4.057-4.808-6.663-8.862-5.827
			c-44.168,9.124-76.226,48.526-76.226,93.688c0,52.754,42.918,95.672,95.672,95.672c52.753,0,95.671-42.918,95.671-95.672
			C489.511,342.765,456.687,303.214,411.463,294.787z"/>
	</g>
</g>
<g>
	<g>
		<path d="M393.84,321.111c-37.341,0-67.72,30.379-67.72,67.719c0,37.341,30.379,67.72,67.72,67.72s67.72-30.379,67.72-67.72
			C461.56,351.49,431.181,321.111,393.84,321.111z M393.84,441.55c-29.07,0-52.72-23.65-52.72-52.72s23.651-52.719,52.72-52.719
			c29.069,0,52.72,23.649,52.72,52.719S422.91,441.55,393.84,441.55z"/>
	</g>
</g>
<g>
	<g>
		<path d="M426.809,123.17l55.871-55.872c4.404-4.403,6.829-10.258,6.829-16.485c0-6.227-2.425-12.081-6.829-16.485
			c-9.09-9.088-23.88-9.088-32.97,0L393.841,90.2l-55.872-55.873c-9.089-9.087-23.88-9.089-32.969,0.001
			c-4.404,4.403-6.829,10.258-6.829,16.485s2.425,12.081,6.828,16.484l55.872,55.872L305,179.041
			c-4.404,4.403-6.829,10.258-6.829,16.485s2.425,12.081,6.828,16.484c4.404,4.403,10.259,6.828,16.485,6.828
			s12.081-2.425,16.484-6.828l14.869-14.868c2.93-2.929,2.93-7.678,0.001-10.606c-2.929-2.928-7.678-2.93-10.606-0.001
			l-14.87,14.868c-1.57,1.57-3.657,2.436-5.878,2.436c-2.221,0-4.308-0.865-5.879-2.436c-1.57-1.569-2.435-3.657-2.435-5.877
			c0-2.221,0.864-4.309,2.436-5.878l61.175-61.175c2.929-2.93,2.929-7.678,0-10.607L315.605,56.69
			c-1.57-1.569-2.435-3.657-2.435-5.878s0.865-4.308,2.435-5.878c3.242-3.242,8.517-3.24,11.757,0l61.175,61.176
			c1.407,1.406,3.314,2.196,5.304,2.196s3.896-0.79,5.304-2.196l61.174-61.176c3.242-3.24,8.516-3.241,11.758,0.001
			c1.57,1.569,2.435,3.657,2.435,5.878c0,2.22-0.864,4.308-2.436,5.877L410.9,117.866c-2.929,2.93-2.929,7.678,0,10.607
			l61.176,61.175c1.57,1.569,2.435,3.657,2.435,5.878c0,2.22-0.864,4.308-2.436,5.877c-1.57,1.57-3.657,2.436-5.878,2.436
			c-2.221,0-4.308-0.865-5.878-2.436l-61.175-61.174c-2.929-2.927-7.678-2.929-10.606,0l-22.14,22.139
			c-2.93,2.929-2.93,7.678-0.001,10.606c2.929,2.928,7.678,2.93,10.606,0.001l16.837-16.836l55.871,55.871
			c4.404,4.403,10.259,6.828,16.485,6.828c6.226,0,12.081-2.425,16.484-6.828c4.404-4.403,6.829-10.258,6.829-16.484
			c0-6.228-2.425-12.082-6.828-16.485L426.809,123.17z"/>
	</g>
</g>
<g>
	<g>
		<path d="M118.16,27.497c-52.753,0-95.67,42.919-95.67,95.673c0,52.753,42.918,95.67,95.671,95.67
			c18.788,0,36.982-5.451,52.616-15.765c3.458-2.281,4.412-6.934,2.13-10.391c-2.281-3.458-6.935-4.412-10.39-2.131
			c-13.175,8.692-28.514,13.286-44.356,13.286c-44.482,0-80.671-36.188-80.671-80.67s36.189-80.672,80.671-80.672
			s80.671,36.189,80.671,80.672c0,16.311-4.846,32.024-14.014,45.442c-2.337,3.421-1.459,8.087,1.961,10.424
			c3.418,2.337,8.086,1.457,10.423-1.961c10.879-15.922,16.629-34.563,16.629-53.905C213.831,70.415,170.913,27.497,118.16,27.497z"
			/>
	</g>
</g>
<g>
	<g>
		<path d="M118.161,55.45c-37.341,0-67.72,30.379-67.72,67.72c0,37.34,30.379,67.719,67.72,67.719s67.72-30.379,67.72-67.719
			C185.88,85.829,155.501,55.45,118.161,55.45z M118.161,175.889c-29.07,0-52.72-23.649-52.72-52.719s23.65-52.72,52.72-52.72
			s52.72,23.65,52.72,52.72S147.23,175.889,118.161,175.889z"/>
	</g>
</g>
<g>
	<g>
		<path d="M504.5,248.5h-241V7.5c0-4.143-3.357-7.5-7.5-7.5c-4.142,0-7.5,3.357-7.5,7.5v241H7.5c-4.142,0-7.5,3.357-7.5,7.5
			s3.358,7.5,7.5,7.5h241v241c0,4.143,3.358,7.5,7.5,7.5c4.143,0,7.5-3.357,7.5-7.5v-241h241c4.143,0,7.5-3.357,7.5-7.5
			S508.643,248.5,504.5,248.5z"/>
	</g>
</g>
<g>
	<g>
		<path d="M285.308,276.705c-4.143,0-7.5,3.357-7.5,7.5v0.938c0,4.143,3.357,7.5,7.5,7.5s7.5-3.357,7.5-7.5v-0.938
			C292.808,280.063,289.45,276.705,285.308,276.705z"/>
	</g>
</g>
<g>
	<g>
		<path d="M226.692,276.705c-4.142,0-7.5,3.357-7.5,7.5v0.938c0,4.143,3.358,7.5,7.5,7.5c4.142,0,7.5-3.357,7.5-7.5v-0.938
			C234.192,280.063,230.834,276.705,226.692,276.705z"/>
	</g>
</g>
<g>
	<g>
		<path d="M285.308,219.357c-4.143,0-7.5,3.357-7.5,7.5v0.938c0,4.143,3.357,7.5,7.5,7.5s7.5-3.357,7.5-7.5v-0.938
			C292.808,222.714,289.451,219.357,285.308,219.357z"/>
	</g>
</g>
<g>
	<g>
		<path d="M226.692,219.357c-4.142,0-7.5,3.357-7.5,7.5v0.938c0,4.143,3.358,7.5,7.5,7.5c4.142,0,7.5-3.357,7.5-7.5v-0.938
			C234.192,222.714,230.834,219.357,226.692,219.357z"/>
	</g>
</g>
<g>
</g>
<g>
</g>
<g>
</g>
<g>
</g>
<g>
</g>
<g>
</g>
<g>
</g>
<g>
</g>
<g>
</g>
<g>
</g>
<g>
</g>
<g>
</g>
<g>
</g>
<g>
</g>
<g>
</g>
</svg>
