<?xml version="1.0" encoding="iso-8859-1"?>
<!-- Generator: Adobe Illustrator 19.0.0, SVG Export Plug-In . SVG Version: 6.00 Build 0)  -->
<svg version="1.1" id="Capa_1" xmlns="http://www.w3.org/2000/svg" xmlns:xlink="http://www.w3.org/1999/xlink" x="0px" y="0px"
     viewBox="0 266 239 239" style="enable-background:new 0 0 256 256;" xml:space="preserve">
    <g>
        <path d="M151.129,388.83L207,332.959c4.404-4.403,6.829-10.258,6.829-16.485s-2.425-12.081-6.828-16.485
            c-9.09-9.088-23.88-9.087-32.97,0l-55.872,55.872l-55.872-55.872c-9.091-9.09-23.88-9.088-32.97,0.001
            c-4.403,4.403-6.828,10.258-6.828,16.484c0,6.228,2.425,12.082,6.828,16.485l55.872,55.871l-55.872,55.872
            c-4.403,4.403-6.828,10.258-6.828,16.484c0,6.228,2.425,12.082,6.828,16.484c4.403,4.404,10.258,6.829,16.485,6.829
            s12.082-2.425,16.485-6.828l55.872-55.872l55.872,55.872c4.403,4.403,10.258,6.828,16.485,6.828
            c6.228,0,12.082-2.425,16.485-6.828c4.403-4.403,6.828-10.258,6.828-16.485s-2.425-12.081-6.828-16.484L151.129,388.83z
             M196.394,467.066c-1.57,1.569-3.657,2.435-5.878,2.435c-2.22,0-4.308-0.865-5.878-2.436l-61.175-61.175
            c-1.464-1.464-3.384-2.196-5.303-2.196s-3.839,0.732-5.303,2.196l-61.175,61.176c-1.57,1.569-3.657,2.435-5.878,2.435
            c-2.221,0-4.308-0.865-5.878-2.436c-1.57-1.569-2.435-3.657-2.435-5.878c0-2.22,0.864-4.308,2.435-5.877l61.175-61.176
            c2.929-2.93,2.929-7.678,0-10.607l-61.175-61.175c-1.57-1.569-2.435-3.657-2.435-5.878c0-2.221,0.865-4.309,2.435-5.878
            c3.241-3.242,8.516-3.242,11.757,0l61.175,61.175c2.929,2.928,7.678,2.928,10.606,0l61.174-61.175
            c3.242-3.24,8.516-3.241,11.757,0.001c1.57,1.569,2.435,3.657,2.435,5.877c-0.001,2.22-0.866,4.308-2.436,5.878l-61.175,61.175
            c-2.929,2.93-2.929,7.678,0,10.607l61.175,61.176c1.57,1.569,2.435,3.657,2.435,5.877
            C198.829,463.408,197.965,465.496,196.394,467.066z"/>
    </g>
</svg>
