<svg id="Capa_1" enable-background="new 0 0 513 513" height="512" viewBox="0 0 513 513" width="512" xmlns="http://www.w3.org/2000/svg"><g><path d="m482.162 34.04h-451.324c-17.004 0-30.838 13.834-30.838 30.838v292.025c0 17.004 13.834 30.838 30.838 30.838h159.15v38.075l-42.493 29.531c-4.678 3.251-6.677 9.088-4.973 14.524s6.676 9.088 12.373 9.088h203.211c5.697 0 10.669-3.652 12.373-9.088s-.295-11.273-4.973-14.524l-42.493-29.531v-38.075h159.15c17.004 0 30.838-13.834 30.838-30.838v-292.025c-.001-17.004-13.835-30.838-30.839-30.838zm-451.324 15h451.324c8.733 0 15.838 7.105 15.838 15.838v262.429h-483v-262.429c0-8.733 7.105-15.838 15.838-15.838zm451.324 323.701h-192.685c-4.142 0-7.5 3.358-7.5 7.5s3.358 7.5 7.5 7.5h18.535v41.996c0 2.457 1.203 4.757 3.22 6.159l40.382 28.064h-190.227l38.452-26.723h82.091c4.142 0 7.5-3.358 7.5-7.5s-3.358-7.5-7.5-7.5h-76.941v-34.496h52.526c4.142 0 7.5-3.358 7.5-7.5s-3.358-7.5-7.5-7.5h-226.677c-8.733 0-15.838-7.105-15.838-15.838v-14.597h483v14.597c0 8.733-7.105 15.838-15.838 15.838z"/><path d="m130.094 293c46.753 0 84.79-38.037 84.79-84.79s-38.037-84.79-84.79-84.79c-18.629 0-36.315 5.937-51.144 17.168-3.302 2.5-3.951 7.205-1.45 10.507 2.5 3.301 7.205 3.952 10.507 1.45 12.201-9.241 26.754-14.125 42.087-14.125 9.189 0 17.96 1.802 26.002 5.044l-31.719 59.526-56.396 36.98c-4.895-9.534-7.677-20.325-7.677-31.759 0-11.82 3.02-23.508 8.732-33.803 2.01-3.622.703-8.188-2.919-10.197s-8.188-.702-10.197 2.919c-6.945 12.516-10.616 26.721-10.616 41.081 0 46.753 38.036 84.789 84.79 84.789zm69.789-84.789c0 6.596-.94 12.974-2.658 19.027l-56.591-22.859 28.695-53.851c18.429 12.576 30.554 33.738 30.554 57.683zm-68.959 8.424 60.68 24.51c-11.783 21.917-34.932 36.855-61.51 36.855-21.677 0-41.075-9.935-53.885-25.489z"/><path d="m272.106 147.49h182.726c7.843 0 14.224-6.381 14.224-14.224v-24.741c0-7.843-6.381-14.224-14.224-14.224h-23.732c-4.142 0-7.5 3.358-7.5 7.5s3.358 7.5 7.5 7.5h22.956v23.188h-181.173v-23.188h126.255c4.142 0 7.5-3.358 7.5-7.5s-3.358-7.5-7.5-7.5h-127.032c-7.843 0-14.224 6.381-14.224 14.224v24.741c.001 7.844 6.382 14.224 14.224 14.224z"/><path d="m272.106 221.886h108.873c7.843 0 14.224-6.381 14.224-14.224v-24.741c0-7.843-6.381-14.224-14.224-14.224h-108.873c-7.843 0-14.224 6.381-14.224 14.224v24.741c.001 7.843 6.382 14.224 14.224 14.224zm.777-38.188h107.32v23.188h-107.32z"/><path d="m272.106 296.281h62.37c7.843 0 14.224-6.381 14.224-14.224v-24.741c0-7.843-6.381-14.224-14.224-14.224h-62.37c-7.843 0-14.224 6.381-14.224 14.224v24.741c.001 7.843 6.382 14.224 14.224 14.224zm.777-38.188h60.817v23.188h-60.817z"/></g></svg>